<?xml version="1.0" encoding="utf-8"?>
<!-- Generator: Adobe Illustrator 22.1.0, SVG Export Plug-In . SVG Version: 6.00 Build 0)  -->
<svg version="1.1" id="图层_1" xmlns="http://www.w3.org/2000/svg" xmlns:xlink="http://www.w3.org/1999/xlink" x="0px" y="0px"
	 viewBox="0 0 612 792" style="enable-background:new 0 0 612 792;" xml:space="preserve">
<style type="text/css">
	.st0{fill:#66CBFD;}
	.st1{fill:#010101;}
	.st2{fill:#66CBFE;}
	.st3{fill:#010202;}
	.st4{fill:#010203;}
	.st5{fill:#FC0102;}
	.st6{fill:#6FCEFE;}
	.st7{fill:#67CCFE;}
	.st8{fill:#ED0000;}
	.st9{fill:#6ECEFE;}
	.st10{fill:#6ACDFE;}
	.st11{fill:#69CCFE;}
</style>
<g>
	<g>
		<path class="st0" d="M400.3,501.2c-4.7,3.7-9.2,7.5-14.1,11c-11.3,8-23.7,14-36.9,18.3c-8.2,2.6-16.5,4.5-25.1,5.6
			c-7.5,1-15,1.4-22.6,1.1c-17.9-0.6-35.2-4.4-51.7-11.6c-12.2-5.3-23.3-12.2-33.6-20.7c-0.2-0.2-0.4-0.3-0.6-0.4
			c0.1-2.9-1.1-5.2-3.3-7.2c-4.7-4.3-9.2-9-13.1-14c2.9-2.4,5.8-4.8,8.6-7.2c0.2,0.2,0.3,0.3,0.5,0.5c5.2,6.3,10.9,12.2,17.4,17.4
			c31.5,25.1,67.1,34,106.5,26c31.1-6.3,56.1-22.7,75.1-48.1c19-25.4,26.9-54.1,24.6-85.7c-0.2-2.3-0.6-4.5-1.1-6.7
			c-0.4-1.6-1.9-2.3-3.2-1.9c-1.4,0.4-2.3,1.9-2,3.5c0.1,0.8,0.3,1.6,0.4,2.5c1.3,12.2,0.8,24.4-1.6,36.4
			c-5.7,27.8-19.3,50.9-41,69.1c-18.9,15.9-40.8,25-65.5,27.5c-12.1,1.2-24.1,0.6-36-1.8c-21.5-4.4-40.5-14.1-56.8-28.8
			c-4.6-4.2-8.9-8.6-12.7-13.5c1.9-1.6,3.8-3.3,5.8-4.9c6.5-5.5,13.1-11,19.6-16.6c3-2.5,5.9-5.1,8.9-7.6c0.2,0.2,0.4,0.4,0.6,0.6
			c19.5,24.2,52,34.1,81.6,24.7c33.3-10.5,55-42.3,52.7-77.2c-0.8-11.8-4.2-22.9-10.1-33.1c-2.6-4.5-5.8-8.7-9.2-12.7
			c0.2-0.2,0.4-0.5,0.7-0.7c5.9-5,11.9-10,17.8-15.1c0.1,0.1,0.3,0.2,0.4,0.3c10.4,11.6,17.8,24.8,22.1,39.8
			c3.8,13.2,4.8,26.6,3,40.2c-2.5,19.3-10,36.5-22.4,51.5c-0.6,0.7-1,1.5-1.6,2.2l0,0c-0.1,0.1-0.2,0.1-0.3,0.2
			c-0.4,0.5-0.9,1-1.3,1.6c-2.3,3.4-0.5,8.2,3.6,9.1c2.8,0.6,5-0.4,6.8-3.4c0.4-0.3,0.8-0.6,1.1-1c6.5-7.5,11.8-15.9,16.1-24.9
			c5.8-12.3,9.3-25.2,10.4-38.7c1.7-20.3-2-39.6-10.8-57.9c-4.7-9.8-10.8-18.7-18.1-26.8c0.4-0.3,0.8-0.5,1.2-0.8
			c3.6-3,7.1-6,10.7-9c2.6-2.2,5.2-4.5,7.8-6.7c0,0,0.1,0,0.1,0.1c20.5,23.6,32,50.9,34.1,82.1c1.1,16.2-0.6,32.1-5.2,47.6
			c-6.5,22.1-17.9,41.4-34,57.8c-2.3,2.4-4.1,4.9-4.1,8.3C400.4,501.1,400.3,501.1,400.3,501.2z M238.7,474
			c-0.9,1.4-1.8,2.9-2.7,4.3c-0.2-0.1-0.4-0.3-0.7-0.5c-0.2,0.7-1.4,1-0.4,1.9c-0.8,1-1.6,2.1-2.3,3.1c-0.9,1.3-0.9,1.3,0.6,2.1
			c0.2-0.2,0.5-0.4,1-0.9c0.2,0.7,0.4,1.2,0.6,1.6c-0.2,0-0.6-0.1-0.6,0c-0.2,0.8-0.6,1.7-0.5,2.4c0.2,1.2,3.3,1.6,4,0.6
			c1.1-1.5,2.2-3.1,3.3-4.7c0.1-0.1,0.2-0.1,0.3-0.2c0.3,0.2,0.5,0.4,0.8,0.6c0.3-0.5,0.6-0.9,0.9-1.3c-0.3-0.4-0.6-0.6-0.8-0.9
			c0.3-0.2,0.5-0.3,0.8-0.5c0.2,0.2,0.3,0.6,0.6,0.7c0.5,0.1,1,0,1.7,0c-2.7,3.1-4.8,6.3-8.9,7.4c2.3,1.5,4.1,0.3,6-0.8
			c-0.2,1.6-0.5,3.1-0.7,4.7c0.8-0.2,1.3-0.4,1.8-0.5c1-0.1,1.2-0.6,1.2-1.5c0-1.6,0.1-3.2,0.2-4.8c0.1-1.4,1.3-2.1,2.6-2
			c1.5,0.1,2.8-0.5,3.6-1.5c-0.2-2-2.1-1.8-3-2.8c0.5-0.5,0.8-1,1.2-1.4c-0.5-0.7-1-1.3-1.5-1.9c-0.4,0.3-0.7,0.5-1,0.7
			c0-0.3,0-0.6,0-0.9c-3-1.2-5.4-3-7.6-5.2C238.2,473.2,238.2,473.2,238.7,474z M375.9,481.7C375.9,481.7,375.8,481.7,375.9,481.7
			c0-1,0.2-2,0.2-2.9c-0.1-1.1,0.3-1.7,1.1-2.3c1.3-0.9,2.5-1.9,3.9-2.9c-0.3-0.3-0.6-0.8-0.9-1.2c-3.5,3.7-7.2,6.8-11.4,9.6
			c0.3,0.4,0.8,0.8,1.1,1.2c0.9-1,1.8-1.9,2.8-3.2c0.3,1.4,0.8,2.4,0.7,3.3c-0.1,0.7-1,1.2-1.6,1.8c0.9,0.7,1.8,1.5,2.9,2.3
			c1.2-1.4,2.4-2.6,3.3-4c1-1.4,1.7-2.9,2.5-4.5c0.8,0.4,1.7,0.9,2.7,1.4c0.4-1.3,0.8-2.5,1.2-3.7c-2.7-1-5.7-0.7-7,0.7
			c0.7,0.4,1.4,0.7,2.3,1.2C378.4,479.8,377.1,480.8,375.9,481.7z M253.9,488.9c-1.5,3.2-3,6.4-5.5,9.2c2.9,0.8,4.6-0.7,6-2.7
			c2,0.9,4,1.7,5.9,2.6c0.4,0.2,0.7,0.7,1,1.1c-0.1,0.1-0.2,0.2-0.2,0.3c0.7,0.3,1.4,0.7,2.1,0.9c0.3,0.1,0.8-0.1,0.9-0.3
			c0.8-1.6,1.5-3.2,2.2-4.8c-0.9-0.8-1.7-1.4-2.4-2.1c-0.3,0.1-0.8,0.3-1.1,0.2c-2.8-1.3-5.9-2-8.2-4.3c0.3-0.1,0.6-0.4,0.9-0.3
			c3.9,1.1,7.5,2.8,11,5c0.2-0.5,0.5-1.1,0.7-1.5c-1.6-0.5-3.1-1-4.5-1.5c0.6-2,0.6-2,2.2-1.2c1.3,0.6,2.5,1.3,3.8,2.1
			c0.2-0.4,0.5-1,0.7-1.4c-1.6-0.6-3.1-1.1-4.6-1.6c-0.8-0.3-1-0.8-0.7-1.4c-0.9-0.8-1.7-1.5-2.6-2.2c-0.3,0.6-0.6,1.1-0.9,1.8
			c-1.8-1-3.6-1.9-5.4-2.9c-0.2,0.5-0.4,1-0.5,1.4c2,0.7,3.8,1.4,5.8,2.1c-0.3,0.7-0.6,1.3-0.9,2c-1.5-0.8-2.9-1.6-4.3-2.4
			C254.6,487.6,254.2,488.2,253.9,488.9z M353.3,486.7c0.6-0.3,1.3-0.6,2.1-1.1c0.8,1.9,1.7,3.8,2.3,5.9c0.6,2,0.7,4.1,1,6.2
			c1.5-1,1.8-2.7,2.1-4.7c0.5,0.5,0.9,0.8,1.2,1.1c0.3,0.3,0.6,0.7,0.9,1.1c0.5-0.3,0.8-0.5,1.1-0.7c1.9-1.4,2.1-2.3,0.9-4.3
			c-0.6-1-1.1-2.1-1.7-3.1c0.1,0,0.1-0.1,0.2-0.1c0.4,0.5,0.8,0.9,1.3,1.4c0.6-0.7,1-1.2,1.5-1.7c-0.9-1.4-1.9-2.3-3.5-2.5
			c-1.2-0.2-1.7-0.8-2.2-1.7c-0.2-0.3-0.6-0.8-0.8-0.8c-0.8,0-1.5,0.2-2,0.3c-0.1,0.6-0.1,1-0.2,1.4c-0.8-0.8-1.1-1.9-1.8-2.2
			c-0.7-0.3-1.7,0.2-2.7,0.4c0.6,1.1,1.1,2.1,1.7,3.2c-0.8,0.2-1.3,0.4-2,0.6C352.9,485.9,353.1,486.3,353.3,486.7
			c-0.5,0.3-0.9,0.6-1.5,1c-0.7-1.1-1.3-2.2-1.9-3.4c-0.9,0.2-1.8,0.4-2.7,0.6c0.8,1.4,1.5,2.8,2.3,4.2c-0.5,0.2-0.8,0.3-1.3,0.4
			c0.3,0.6,0.6,1,0.9,1.5c0.4-0.3,0.7-0.5,1-0.8c1.8,3.1,3.6,6.2,5.4,9.4c0.8-0.5,1.5-0.9,2.3-1.4c-1-1.9-2-3.6-3.1-5.5
			c0.9,0.1,1.6,0.1,2.3,0.2c0.4-2.2-0.7-4.7-2.3-5.5c0,1.6,0,3.2,0,4.8c-0.1,0-0.2,0.1-0.3,0.1c-0.6-1.1-1.3-2.2-1.9-3.4
			c0.6-0.2,1-0.4,1.3-0.5C353.6,487.8,353.4,487.2,353.3,486.7z M340.1,495.1c1.7,2.6,3.5,5,6.7,5.9c0.3-1.3,0.7-2.4,1-3.6
			c-2.8-1-5.5-2.1-7.8-4.3c1.7-0.4,3.2-0.8,4.8-1.2c-0.2-0.5-0.4-1-0.5-1.5c-1,0.4-1.9,0.8-2.9,1.2c0.4-0.8,0.8-1.5,1.2-2.3
			c-1.4-1-3.3-1.2-4.4-0.3c0.5,0.5,0.9,1,1.5,1.4c0.6,0.4,1.2,0.8,1.8,1.2c-0.8,0.4-1.6,0.7-2.5,1.1c-0.3-0.9-0.5-1.7-0.9-2.4
			c-0.1-0.3-0.6-0.6-0.8-0.6c-0.9,0-1.8,0.2-2.9,0.3c0.3,1,0.7,2,1,2.9c0.2,0.6,0.1,1-0.6,1.1c-1.6,0.4-3.1,0.8-4.7,1.3
			c0.1,0.4,0.3,1,0.5,1.4c1.6-0.7,3-1.3,4.4-1.8c1-0.4,1.3,0,1.2,1.1c-0.9,0-1.7,0-2.2,0c-0.2,3.4-0.4,6.7-0.5,10.1
			c2.7-1.3,3.4-4,4.2-6.7c0.7,2,1.4,4.1,2.2,6.2c1.1-0.4,2.1-0.7,3.2-1.1c-0.1-0.5-0.3-0.9-0.4-1.2c-0.9-2.7-1.7-5.3-2.6-8
			C340,495.2,340.1,495.1,340.1,495.1z M317.5,501.1c1.8-0.8,3.7-1.3,5.9-1.2c-0.3,1.4-0.7,2.6-1,3.8c-0.2,0.1-0.3,0.2-0.5,0.2
			c-0.8-1-1.7-2-2.6-3c-0.7,1.5-1.5,2.9-2.2,4.4c0.7,0.2,1.4,0.5,2.2,0.7c0.2-0.8,0.4-1.5,0.6-2.2c1.5,2,1.5,2.1-0.2,3.8
			c-0.9,0.9-1.9,1.8-3.1,2.9c2.3-0.3,4.1-0.9,5.5-2.3c0.6-0.6,1-0.7,1.7-0.2c0.9,0.5,1.9,0.9,2.9,1.3c0.5-1.1,0.8-2,1.2-2.9
			c-1.2-0.4-2.3-0.7-3.5-1c1-2.2,1.7-4.4,1.7-6.7c-1-0.2-1.8-0.4-2.7-0.6c-0.2,0.3-0.3,0.5-0.5,0.8c-0.1-0.4-0.2-0.7-0.3-1.1
			c-0.2-1.3-0.1-1.6,1.3-1.5c0.6,0,1.1,0.1,1.8,0.2c-0.1-0.7-0.1-1.3-0.2-1.8c-1.1,0.4-2.1,0.7-3.1,1c-0.2-0.9-0.4-1.6-0.5-2.2
			c-1-0.1-1.9-0.2-2.9-0.3c0.1,1,0.2,1.9,0.3,2.9c-1.1,0-2,0-3,0c0.4,1.3-0.5,1.4-1.3,1.6c-0.2-1-0.3-2-0.5-2.9
			c-1-0.2-1.9-0.3-2.9-0.5c0.2,1.4,0.3,2.7,0.5,4.1c-0.8-0.1-1.3-0.1-2-0.2c0.1,0.6,0.2,1.2,0.3,1.7c0.7-0.3,1.2-0.5,1.9-0.8
			c0.2,1.1,0.6,2.1,0.4,2.9c-0.2,0.5-1.3,0.8-2,1.2c0.4,0.8,0.8,1.6,1.2,2.5c0.5-0.2,0.9-0.3,1.4-0.5c0.2,1.1,0.3,2.2,0.5,3.4
			c-0.8,0-1.5,0-2.2,0c0.5,0.9,1,1.7,1.5,2.5c0.2,0,0.4-0.1,0.5-0.1c2.6-0.7,3.3-1.6,2.7-4.2c-0.4-2.1-0.6-4,0.8-5.7
			C317.4,501.1,317.4,501.1,317.5,501.1z M306.1,499.1c0-0.6,0-1.3,0-1.9c-0.7,0.2-1.3,0.3-1.9,0.4c0-0.1-0.1-0.1-0.1-0.2
			c0.5-0.4,0.9-0.7,1.4-1.1c-0.8-1.2-1.9-1.7-3.2-1.5c0.4,0.9,0.7,1.7,1.1,2.8c-0.6,0-0.9-0.1-1.3-0.1c-0.2-2.5-0.2-2.5-2.6-3.1
			c-0.1,1-0.2,1.9-0.3,3c-2.7-0.1-5.2,0.3-7.3-1.2c-0.5,4.9-1,9.7-1.4,14.5c1.9-0.7,2.8-2.2,3.5-4.4c0.3,0.9,0.4,1.6,0.6,2.3
			c0.6,0,1.2,0,1.8-0.2c0.9-0.2,2-0.5,2.1-1.5c0.2-2.1,0.3-4.2,0.4-6.2c-1-0.4-1.8-0.6-2.6-0.9c0,0.1,0,0.2,0.1,0.3
			c-0.5,0.2-1,0.3-1.7,0.5c0.1-1,0.1-1.7,0.1-2.5c1.6,0.1,3,0.2,4.5,0.3c0.3,2.3,0.4,4.5,0.8,6.6c0.1,0.9,0,1.6-0.6,2.2
			c-1.1,1.1-2.2,2.3-3.2,3.4c0,0.1,0.1,0.2,0.1,0.3c1.6-0.6,3.3-1.2,5-1.9c0,0.1,0.2,0.3,0.4,0.6c1.4,2.3,3.5,2.3,4.8-0.1
			c0.1-0.3,0.2-0.7,0.1-1c-0.3-0.9-0.8-1.8-1.2-2.9c-0.4,0.8-0.7,1.5-1,2.2c-1.1-1.3-1.1-1.3-0.3-2.6c0.8-1.3,1.5-2.6,2.3-3.9
			c-0.9-0.6-1.6-1.2-2.4-1.8c-0.5,0.9-0.9,1.8-1.3,2.6c-0.1,0-0.2,0-0.3-0.1c0-1.2,0-2.5,0-3.9C303.6,498.6,304.8,498.8,306.1,499.1
			z M274.7,497.9c0.6,0.4,0.9,0.8,1.3,0.8c2.4,0.2,4.6,0.6,6.7,1.9c0.2-0.3,0.3-0.6,0.5-0.9c0.7,0.5,1.4,0.9,2.1,1.4
			c0.8-1.1,1.4-2,2.2-3c-2.2-1.1-4.4-2-6.1-3.8c0.3-0.4,0.4-0.6,0.6-0.9c-1-0.8-2-1.5-3-2.3c-2.3,2.8-5.3,4.7-8.6,6
			c0,0.1,0.1,0.3,0.1,0.4C272,497.6,273.5,497.8,274.7,497.9z M281.5,501.2c-0.1,0.1-0.3,0.5-0.5,0.5c-2.8-0.8-5.8-0.8-8.3-2.6
			c-0.6,2.6-1.2,5.1-1.8,7.7c1.1,0.3,2.2,0.5,3.2,0.8c0.2-0.5,0.4-0.9,0.5-1.4c1.5,0.3,2.9,0.7,4.3,1c0.6,0.1,0.9,0.4,0.8,1.1
			c0,0.2,0.2,0.7,0.4,0.7c0.7,0.2,1.5,0.4,2.2,0.5c0.2,0,0.6-0.2,0.7-0.4c0.5-2.1,1-4.2,1.5-6.2
			C283.6,502.3,282.6,501.8,281.5,501.2z M367.6,471.4c0.7,3.4,0.2,6.7-0.9,9.9c0.1,0.1,0.2,0.2,0.3,0.2c1.1-1.1,2.2-2.1,3.4-3.2
			c0.2,0.2,0.5,0.4,0.8,0.7c1.4-2.3,3.3-3.8,5.7-4.9c-0.3-0.4-0.5-0.8-0.8-1.1c1.1-0.4,2.1-0.7,3-1c-0.4-1.3-0.7-2.4-1-3.4
			c-2.1,1-4.3,1.9-6.4,2.9c-0.3-0.6-0.4-1-0.6-1.3C370,470.6,368.9,470.9,367.6,471.4z"/>
		<path class="st1" d="M400.3,501.2c0,0,0-0.1,0-0.1c0-3.5,1.8-5.9,4.1-8.3c16.1-16.4,27.5-35.7,34-57.8c4.6-15.6,6.3-31.5,5.2-47.6
			c-2.2-31.2-13.6-58.5-34.1-82.1c0,0-0.1,0-0.1-0.1c-0.2-0.2-0.4-0.5-0.6-0.7c-26.7-29-59.7-44.5-99.2-45.8
			c-18-0.6-35.4,2.4-52.2,8.8c-16.2,6.2-30.8,14.9-43.5,26.7c-0.3-0.1-0.7-0.2-0.9-0.4c-3.5-3.4-7-6.8-10.4-10.3
			c-0.3-0.3-0.5-0.8-0.7-1.2c8.8-8.2,18.5-15.1,29-20.9c16-8.9,33.1-14.8,51.2-17.7c11.2-1.8,22.4-2.4,33.7-1.6
			c33.9,2.3,63.9,14.2,89.9,36.1c24.6,20.7,41.1,46.6,49.6,77.6c4.3,15.6,6,31.5,5.2,47.7c-1.8,35.3-14.2,66.4-37,93.4
			c-2.2,2.6-4.4,5.1-6.8,7.4c-2.8,2.7-6.2,4.2-10.1,3.7c-3.2-0.5-5.2-2.7-6.4-5.7C400.2,501.8,400.3,501.5,400.3,501.2z"/>
		<path class="st1" d="M199.4,483.2c3.9,5.1,8.4,9.7,13.1,14c2.2,2,3.4,4.3,3.3,7.2c-0.6,1.4-1.1,2.8-1.7,4.2c-1.1,2.6-3.5,3-6,3.1
			c-3,0.2-5.3-1.3-7.5-3c-5.2-4.1-9.5-9.1-13.7-14.2c-16.5-20.2-27.4-43-32.4-68.6c-2.5-13-3.4-26.1-2.6-39.3
			c0.8-13.3,3.3-26.4,7.5-39c0.6-1.7,1.2-3.4,1.8-5.1c2.3,0.6,4.6,1.3,6.9,1.9c3.1,0.9,6.3,1.8,9.4,2.7c-0.6,1.6-1.3,3.2-1.9,4.9
			c-6.9,20.5-8.9,41.5-6,63c2.4,17.5,8,34,16.7,49.4C190.3,471,194.5,477.3,199.4,483.2z"/>
		<path class="st2" d="M177.6,347.1c-3.1-0.9-6.3-1.8-9.4-2.7c-2.3-0.7-4.6-1.3-6.9-1.9c0.8-2.1,1.5-4.2,2.4-6.3
			c1.5-3.3,2.9-6.7,4.6-9.9c2.9-5.2,5.8-10.5,9.1-15.4c3.2-4.8,6.6-9.5,10.4-14c4-4.7,8.4-9,12.7-13.5c0.5-0.5,1.1-0.8,1.6-1.2
			c0.2,0.4,0.4,0.9,0.7,1.2c3.4,3.4,6.9,6.9,10.4,10.3c0.2,0.2,0.6,0.3,0.9,0.4c-0.5,0.5-1.1,0.9-1.5,1.5c-3.4,3.5-6.8,7-10,10.6
			c-2.5,2.8-4.8,5.7-7,8.7c-4.6,6.1-8.7,12.6-12,19.5C181.4,338.5,179.5,342.8,177.6,347.1z"/>
		<path class="st1" d="M246.8,443c-3.4-4.5-6.4-9.2-8.8-14.3c-20.6-43.1,4-95.1,50.5-105.8c28.3-6.5,52.8,1.2,73.2,21.9
			c0.2,0.2,0.5,0.4,0.7,0.7c3.4,4,6.6,8.1,9.2,12.7c6,10.3,9.4,21.3,10.1,33.1c2.3,34.9-19.4,66.7-52.7,77.2
			c-29.6,9.4-62.1-0.5-81.6-24.7C247.2,443.4,247,443.2,246.8,443z M320.5,336.5c-7.8-1.8-15.7-2.2-23.7-1
			c-14.8,2.4-27.2,9.1-36.9,20.5c-13.3,15.6-18,33.6-13.5,53.6c6.9,30.8,35.1,50.8,66.5,47.6c13.5-1.4,25.3-6.7,35.1-16.1
			c16.6-16,22.6-35.5,18.2-58.1c-0.9-4.9-2.6-9.5-5-13.9c-1.3-2.4-2.5-4.9-3.8-7.3c-2-3.6-4.6-6.8-7.6-9.7
			c-3.5-3.4-7.3-6.4-11.5-8.8c-3-1.7-6.1-3.3-9.3-4.4C326.2,338,323.3,337.3,320.5,336.5z"/>
		<path class="st3" d="M380.7,329.7c-3.6-3.5-7.1-7.2-11-10.3c-13.4-10.9-28.8-17.8-45.9-20.8c-11.1-1.9-22.2-1.9-33.3-0.2
			c-1.6,0.3-3.3,0.3-4.9,0.1c-2.9-0.4-4.1-2.7-4.2-5.4c-0.1-3,1.4-4.9,4.3-5.8c6-1.8,12.2-2.1,18.4-2.2c23.2-0.5,44.5,5.7,64,18.2
			c7.5,4.8,14.3,10.5,20.4,17c0.4,0.4,0.8,0.9,1.2,1.3c7.3,8.1,13.4,17,18.1,26.8c8.8,18.3,12.4,37.7,10.8,57.9
			c-1.1,13.5-4.6,26.5-10.4,38.7c-4.3,9-9.5,17.3-16.1,24.9c-0.3,0.4-0.8,0.7-1.1,1c0.1-0.2,0.1-0.5,0.2-0.7c1-3.7-1.2-7.1-5-7.5
			c-1.3-0.1-2.7,0.5-4,0.7c0.5-0.7,1-1.5,1.6-2.2c12.4-15,19.9-32.2,22.4-51.5c1.8-13.6,0.8-27-3-40.2c-4.3-15-11.7-28.2-22.1-39.8
			C381,329.8,380.9,329.7,380.7,329.7z"/>
		<path class="st4" d="M186,406.6c0.9,9,2.5,17.8,5.3,26.3c4.5,14,11.3,26.7,20.4,38.2c0.3,0.3,0.6,0.7,0.9,1
			c3.8,4.9,8.1,9.4,12.7,13.5c16.3,14.7,35.3,24.3,56.8,28.8c11.9,2.5,23.9,3.1,36,1.8c24.6-2.5,46.5-11.6,65.5-27.5
			c21.7-18.2,35.4-41.3,41-69.1c2.4-12,2.9-24.2,1.6-36.4c-0.1-0.8-0.3-1.7-0.4-2.5c-0.3-1.6,0.6-3.1,2-3.5c1.4-0.4,2.9,0.3,3.2,1.9
			c0.5,2.2,0.9,4.5,1.1,6.7c2.3,31.6-5.7,60.3-24.6,85.7c-19,25.4-44,41.8-75.1,48.1c-39.4,8-75-0.9-106.5-26
			c-6.4-5.1-12.1-11-17.4-17.4c-0.1-0.2-0.3-0.3-0.5-0.5c-4-5.2-7.9-10.6-11.2-16.3c-7.6-13.2-12.8-27.3-15.3-42.4
			c-0.5-3.2-0.9-6.4-1.4-9.6c0-0.3,0-0.6,0.1-0.8C182.2,406.8,184.1,406.7,186,406.6z"/>
		<path class="st5" d="M382.3,463.7c1.3-0.3,2.7-0.9,4-0.7c3.7,0.4,5.9,3.8,5,7.5c-0.1,0.2-0.1,0.5-0.2,0.7c-1.9,2.9-4.1,4-6.8,3.4
			c-4-0.9-5.9-5.6-3.6-9.1c0.4-0.6,0.9-1,1.3-1.6C382.1,463.8,382.2,463.7,382.3,463.7L382.3,463.7z"/>
		<path class="st3" d="M382.3,463.7c-0.1,0.1-0.2,0.1-0.3,0.2C382.1,463.8,382.2,463.7,382.3,463.7z"/>
		<path class="st6" d="M317.3,501.1c0-0.1,0.1-0.1,0.1-0.2c0,0.1,0.1,0.1,0.1,0.2C317.4,501.1,317.4,501.1,317.3,501.1z"/>
		<path class="st7" d="M186,406.6c-1.9,0.1-3.8,0.2-5.7,0.2c-4.9-1.4-8.1-4.5-9-9.6c-1.1-6,3.2-12.1,9.2-13.2
			c7.6-1.4,14.1,4.3,13.9,11.9C194.3,400.7,191.1,404.8,186,406.6z M182.7,388.6c-3.8,0-6.8,3.1-6.8,6.9c0,3.7,3.1,6.8,6.8,6.8
			c3.8,0,6.9-3.1,6.9-6.8C189.6,391.6,186.5,388.5,182.7,388.6z"/>
		<path class="st8" d="M361.2,369.1c2.4,4.4,4,9.1,5,13.9c4.4,22.6-1.6,42.1-18.2,58.1c-9.7,9.4-21.6,14.7-35.1,16.1
			c-31.3,3.3-59.6-16.8-66.5-47.6c-4.5-20,0.3-38,13.5-53.6c9.7-11.4,22.2-18.1,36.9-20.5c7.9-1.3,15.8-0.9,23.7,1
			c0,0.3,0.1,0.6,0,0.8c-1.3,6.5-2.6,13.1-3.9,19.6c-0.3,1.7-0.7,3.5-1,5.1c11.5,3.8,21.1,9.6,25.6,21.5c0.4-0.2,0.7-0.3,0.9-0.5
			c5.3-3.8,10.6-7.6,15.8-11.4C359.2,370.9,360.2,370,361.2,369.1z M319.7,396.2c0-7.4-6-13.4-13.4-13.4c-7.4,0-13.5,6-13.5,13.4
			c0,7.5,6,13.5,13.5,13.5C313.7,409.7,319.7,403.7,319.7,396.2z"/>
		<path class="st9" d="M295.8,506.2c-0.7-0.1-1.2-0.3-1.7-0.4c0.1-1.4,0.2-2.7,0.4-4.1c0-0.3,0.8-0.4,1.3-0.7
			C295.8,503,295.8,504.6,295.8,506.2z"/>
		<path class="st6" d="M320.1,499.5c-1-0.1-1.8-0.1-2.8-0.2c0.2,1.3-0.5,1.7-1.6,1.8c-0.1-0.7-0.2-1.3-0.3-2.1
			c0.5,0,0.8-0.1,1.1-0.1c0.2-1,1.7-2,2.9-1.9C319.9,497.1,319.9,497.1,320.1,499.5z"/>
		<path class="st0" d="M339.9,494.6c0.1,0.2,0.2,0.3,0.3,0.5c0,0-0.1,0.1-0.1,0.1C339.9,495,339.9,494.8,339.9,494.6L339.9,494.6z"
			/>
		<path class="st0" d="M339.8,494.7c-0.1-0.1-0.1-0.2-0.2-0.3c0,0,0.1,0,0.1-0.1C339.8,494.4,339.8,494.5,339.8,494.7
			C339.9,494.6,339.8,494.7,339.8,494.7z"/>
		<path class="st9" d="M363.1,492.1c-0.9,0.2-1.6,0.4-2.5,0.7c-0.3-3-1.5-5.5-2.8-8.1c-0.1-0.2,0-0.5,0.1-0.8
			c0.3,0.1,0.7,0.2,0.8,0.4c1.2,2.1,2.4,4.2,3.6,6.3C362.6,491.1,362.8,491.5,363.1,492.1z"/>
		<path class="st0" d="M363.1,486.5c0.1,0.1,0.2,0.3,0.3,0.4c-0.1,0-0.1,0.1-0.2,0.1C363.2,486.8,363.2,486.7,363.1,486.5
			L363.1,486.5z"/>
		<path class="st0" d="M362.9,486.2c-0.1-0.1-0.1-0.2-0.2-0.3c0,0,0.1,0,0.1-0.1C362.8,486,362.8,486.1,362.9,486.2
			C362.9,486.2,362.9,486.2,362.9,486.2z"/>
		<path class="st0" d="M363.1,486.5c-0.1-0.1-0.1-0.2-0.2-0.3c0,0,0,0,0,0C363,486.3,363,486.4,363.1,486.5
			C363.1,486.5,363.1,486.5,363.1,486.5z"/>
		<path class="st9" d="M259.3,492.9c1.2,0.5,2.3,0.9,3.7,1.5c-0.4,1-0.7,2.1-1.3,2.8c-0.2,0.3-1.3-0.1-1.9-0.1c0-0.4-0.1-0.5,0-0.5
			c0.9-1.4,1.1-2.6-0.6-3.5C259.2,493,259.2,492.9,259.3,492.9z"/>
		<path class="st9" d="M256.2,491.5c2,0.7,2,0.7,1.1,3c-0.7,1.8-1.6,0.1-2.5,0.2C255.3,493.6,255.7,492.6,256.2,491.5z"/>
		<path class="st9" d="M259.2,493c0-0.1-0.1-0.1-0.1-0.2c0.1,0,0.2,0,0.3,0C259.2,492.9,259.2,493,259.2,493z"/>
		<path class="st0" d="M375.9,481.7c0,0-0.1,0.1-0.1,0.1C375.8,481.8,375.8,481.7,375.9,481.7C375.8,481.7,375.9,481.7,375.9,481.7z
			"/>
		<path class="st0" d="M242.9,481.9c0.7-1.3,1.4-2.5,2.2-4c0.3,0.5,0.4,0.7,0.6,0.9c0.4-0.2,0.7-0.3,1-0.5
			C245.4,479.5,244.2,480.7,242.9,481.9z"/>
		<path class="st10" d="M248.7,482.6c-0.7,0.6-1.3,1.2-2.2,2c-0.3-1-0.8-1.8-0.6-2.3C246.2,481.4,247.3,481.6,248.7,482.6z"/>
		<path class="st10" d="M280.5,495.1c0.6,1.2,1.2,2.4,1.9,3.7c-2.1,0.1-4-0.4-5.9-1.3C277.9,496.6,279.2,495.9,280.5,495.1z"/>
		<path class="st11" d="M281.1,502.7c-0.3,1.3-0.6,2.5-0.9,3.9c-1.8-0.4-3.5-0.8-5.3-1.2c0.3-1.4,0.6-2.6,0.9-3.9
			C277.6,501.8,279.3,502.2,281.1,502.7z"/>
		<path class="st10" d="M370.8,477.1c0.3-1.7,0.6-3.1,0.8-4.5c1.2,0.2,2.3,0.3,3.7,0.5C374.2,474.9,372.7,476.1,370.8,477.1z"/>
		<path class="st0" d="M235.9,478.3c0.7,0.2,1.4,0.3,2,0.5c0.2,0.1,0.5,0.3,0.6,0.5c0.4,0.5,0.7,1,1.1,1.8c0.9-1.3,1.7-2.3,2.4-3.4
			c0.4-0.6-0.5-1.3-1.1-1.7c-0.9-0.5-1.5-1.3-2.2-2c0.7,0.3,1.5,0.5,2.1,0.9c0.9,0.5,1.6,1.1,2.6,1.8c-0.7,1.1-1.4,2.1-2.1,3.1
			c-1.1,1.7-1.2,1.7,0.6,2.6c-0.2,0-0.5,0.2-0.7,0.1c-1.7-1.2-3.4-2.4-5.1-3.7C236,478.7,236,478.5,235.9,478.3z"/>
		<path class="st0" d="M235,486c0.3,0.1,0.6,0.3,1,0.4c0.7-0.9,1.3-1.9,2-2.8c0.4-0.6,0-1.9-0.6-1.9c-1.3-0.1-1.9-1-2.5-2
			c0.4,0.1,0.9,0,1.2,0.2c1.1,0.7,2.2,1.5,3.4,2.3c-1.2,1.7-2.3,3.3-3.5,5.1C235.5,486.8,235.2,486.4,235,486z"/>
		<path class="st0" d="M234.7,485.8c0.1,0.1,0.2,0.2,0.3,0.3C234.9,485.9,234.8,485.8,234.7,485.8z"/>
		<path class="st6" d="M235.4,481.7c0.5,0.4,0.8,0.6,1.2,1c-0.5,0.5-0.9,1-1.4,1.4c-0.1,0-0.6-0.4-0.6-0.4
			C234.7,483,235,482.5,235.4,481.7z"/>
		<path class="st6" d="M239.4,476.1c0.4,0.3,0.7,0.5,1.1,0.7c-0.4,0.6-0.7,1.1-1.2,1.7c-0.4-0.2-0.7-0.4-1.1-0.7
			C238.6,477.3,239,476.7,239.4,476.1z"/>
	</g>
</g>
</svg>
